<?xml version="1.0" encoding="utf-8"?>
<!-- Generator: Adobe Illustrator 22.0.1, SVG Export Plug-In . SVG Version: 6.00 Build 0)  -->
<svg version="1.1" id="레이어_1" xmlns="http://www.w3.org/2000/svg" xmlns:xlink="http://www.w3.org/1999/xlink" x="0px"
	 y="0px" viewBox="0 0 20 20" style="enable-background:new 0 0 20 20;" xml:space="preserve">
<style type="text/css">
	.st0{fill:#FFFFFF;}
</style>
<rect width="20" height="20"/>
<g transform="rotate(45 5.303 12.803)">
	<g>
		<path class="st0" d="M6.6,0L6.6,0c0.3,0,0.5,0.2,0.5,0.5v14c0,0.3-0.2,0.5-0.5,0.5l0,0c-0.3,0-0.5-0.2-0.5-0.5v-14
			C6.1,0.2,6.4,0,6.6,0z"/>
	</g>
	<g>
		<path class="st0" d="M14.1,7.5L14.1,7.5c0,0.3-0.2,0.5-0.5,0.5h-14c-0.3,0-0.5-0.2-0.5-0.5l0,0C-0.9,7.2-0.6,7-0.4,7h14
			C13.9,7,14.1,7.2,14.1,7.5z"/>
	</g>
</g>
</svg>
