<svg xmlns="http://www.w3.org/2000/svg" width="119" height="78" viewBox="0 0 119 78">
  <g fill="none" fill-rule="evenodd">
    <g fill="#777" transform="translate(24 13)">
      <rect width="15.771" height="12"/>
      <rect width="15.771" height="12" x="19.057"/>
      <rect width="15.771" height="12" x="38.114"/>
      <rect width="15.771" height="12" x="57.171"/>
      <rect width="15.771" height="12" x="76.229"/>
    </g>
    <g fill="#6FB85A" transform="translate(24 30)">
      <rect width="15.771" height="12"/>
      <rect width="15.771" height="12" x="19.057"/>
      <rect width="15.771" height="12" x="38.114"/>
      <rect width="15.771" height="12" x="57.171"/>
      <rect width="15.771" height="12" x="76.229"/>
    </g>
    <g fill="#6FB85A" transform="translate(24 47)">
      <rect width="15.771" height="12"/>
      <rect width="15.771" height="12" x="19.057"/>
      <rect width="15.771" height="12" x="38.114"/>
      <rect width="15.771" height="12" x="57.171"/>
      <rect width="15.771" height="12" x="76.229"/>
    </g>
    <g fill="#6FB85A" transform="translate(24 64)">
      <rect width="15.771" height="12"/>
      <rect width="15.771" height="12" x="19.057"/>
      <rect width="15.771" height="12" x="38.114"/>
      <rect width="15.771" height="12" x="57.171"/>
      <rect width="15.771" height="12" x="76.229"/>
    </g>
    <polygon fill="#4DA931" points="0 0 119 78 0 78"/>
  </g>
</svg>
